<mxfile host="app.diagrams.net" modified="2024-06-13T16:35:32.208Z" agent="Mozilla/5.0 (Windows NT 10.0; Win64; x64) AppleWebKit/537.36 (KHTML, like Gecko) Chrome/125.0.0.0 Safari/537.36" version="24.5.4" etag="OQHQzvh5i-nD1G0HYq9k" type="device">
  <diagram id="VtKVIPxxC3kk2X4J1Wsi" name="Page-1">
    <mxGraphModel dx="1032" dy="418" grid="1" gridSize="10" guides="1" tooltips="1" connect="1" arrows="1" fold="1" page="1" pageScale="1" pageWidth="850" pageHeight="1100" math="0" shadow="0">
      <root>
        <mxCell id="0" />
        <mxCell id="1" parent="0" />
        <mxCell id="hgUSs0YSdh9Fxql4E1rR-1" value="" style="shape=trapezoid;perimeter=trapezoidPerimeter;whiteSpace=wrap;html=1;fixedSize=1;rotation=90;" vertex="1" parent="1">
          <mxGeometry x="245" y="385" width="240" height="90" as="geometry" />
        </mxCell>
        <mxCell id="hgUSs0YSdh9Fxql4E1rR-3" value="" style="rounded=0;whiteSpace=wrap;html=1;rotation=90;" vertex="1" parent="1">
          <mxGeometry x="445" y="380" width="120" height="60" as="geometry" />
        </mxCell>
        <mxCell id="hgUSs0YSdh9Fxql4E1rR-4" value="" style="endArrow=classic;html=1;rounded=0;" edge="1" parent="1">
          <mxGeometry width="50" height="50" relative="1" as="geometry">
            <mxPoint x="410" y="409.5" as="sourcePoint" />
            <mxPoint x="470" y="409.5" as="targetPoint" />
            <Array as="points">
              <mxPoint x="440" y="409.5" />
            </Array>
          </mxGeometry>
        </mxCell>
        <mxCell id="hgUSs0YSdh9Fxql4E1rR-6" value="" style="endArrow=classic;html=1;rounded=0;entryX=-0.02;entryY=0.633;entryDx=0;entryDy=0;entryPerimeter=0;" edge="1" parent="1">
          <mxGeometry width="50" height="50" relative="1" as="geometry">
            <mxPoint x="585" y="400" as="sourcePoint" />
            <mxPoint x="653" y="400" as="targetPoint" />
          </mxGeometry>
        </mxCell>
        <mxCell id="hgUSs0YSdh9Fxql4E1rR-7" value="" style="edgeStyle=elbowEdgeStyle;elbow=vertical;endArrow=classic;html=1;curved=0;rounded=0;endSize=8;startSize=8;" edge="1" parent="1">
          <mxGeometry width="50" height="50" relative="1" as="geometry">
            <mxPoint x="595" y="400" as="sourcePoint" />
            <mxPoint x="155" y="340" as="targetPoint" />
            <Array as="points">
              <mxPoint x="425" y="270" />
            </Array>
          </mxGeometry>
        </mxCell>
        <mxCell id="hgUSs0YSdh9Fxql4E1rR-9" value="" style="endArrow=none;html=1;rounded=0;" edge="1" parent="1">
          <mxGeometry width="50" height="50" relative="1" as="geometry">
            <mxPoint x="595" y="420" as="sourcePoint" />
            <mxPoint x="625" y="390" as="targetPoint" />
          </mxGeometry>
        </mxCell>
        <mxCell id="hgUSs0YSdh9Fxql4E1rR-11" value="" style="triangle;whiteSpace=wrap;html=1;" vertex="1" parent="1">
          <mxGeometry x="475" y="435" width="10" height="20" as="geometry" />
        </mxCell>
        <mxCell id="hgUSs0YSdh9Fxql4E1rR-12" value="" style="ellipse;whiteSpace=wrap;html=1;aspect=fixed;" vertex="1" parent="1">
          <mxGeometry x="485" y="470" width="10" height="10" as="geometry" />
        </mxCell>
        <mxCell id="hgUSs0YSdh9Fxql4E1rR-13" value="Clk" style="text;html=1;align=center;verticalAlign=middle;whiteSpace=wrap;rounded=0;" vertex="1" parent="1">
          <mxGeometry x="445" y="435" width="30" height="20" as="geometry" />
        </mxCell>
        <mxCell id="hgUSs0YSdh9Fxql4E1rR-14" value="nRst" style="text;html=1;align=center;verticalAlign=middle;whiteSpace=wrap;rounded=0;" vertex="1" parent="1">
          <mxGeometry x="472.5" y="480" width="35" height="15" as="geometry" />
        </mxCell>
        <mxCell id="hgUSs0YSdh9Fxql4E1rR-15" value="P [7:0]" style="text;html=1;align=center;verticalAlign=middle;whiteSpace=wrap;rounded=0;" vertex="1" parent="1">
          <mxGeometry x="655" y="385" width="40" height="25" as="geometry" />
        </mxCell>
        <mxCell id="hgUSs0YSdh9Fxql4E1rR-17" value="" style="endArrow=classic;html=1;rounded=0;" edge="1" parent="1">
          <mxGeometry width="50" height="50" relative="1" as="geometry">
            <mxPoint x="255" y="340" as="sourcePoint" />
            <mxPoint x="315" y="340" as="targetPoint" />
          </mxGeometry>
        </mxCell>
        <mxCell id="hgUSs0YSdh9Fxql4E1rR-18" value="" style="endArrow=classic;html=1;rounded=0;" edge="1" parent="1">
          <mxGeometry width="50" height="50" relative="1" as="geometry">
            <mxPoint x="255" y="384.39" as="sourcePoint" />
            <mxPoint x="315" y="384.39" as="targetPoint" />
          </mxGeometry>
        </mxCell>
        <mxCell id="hgUSs0YSdh9Fxql4E1rR-19" value="" style="endArrow=classic;html=1;rounded=0;" edge="1" parent="1">
          <mxGeometry width="50" height="50" relative="1" as="geometry">
            <mxPoint x="255" y="429.7" as="sourcePoint" />
            <mxPoint x="315" y="429.7" as="targetPoint" />
          </mxGeometry>
        </mxCell>
        <mxCell id="hgUSs0YSdh9Fxql4E1rR-20" value="" style="endArrow=classic;html=1;rounded=0;" edge="1" parent="1">
          <mxGeometry width="50" height="50" relative="1" as="geometry">
            <mxPoint x="255" y="479.86" as="sourcePoint" />
            <mxPoint x="315" y="479.86" as="targetPoint" />
          </mxGeometry>
        </mxCell>
        <mxCell id="hgUSs0YSdh9Fxql4E1rR-22" value="" style="endArrow=none;html=1;rounded=0;" edge="1" parent="1">
          <mxGeometry width="50" height="50" relative="1" as="geometry">
            <mxPoint x="215" y="480" as="sourcePoint" />
            <mxPoint x="255" y="480" as="targetPoint" />
          </mxGeometry>
        </mxCell>
        <mxCell id="hgUSs0YSdh9Fxql4E1rR-23" value="" style="endArrow=none;html=1;rounded=0;" edge="1" parent="1">
          <mxGeometry width="50" height="50" relative="1" as="geometry">
            <mxPoint x="215" y="429.86" as="sourcePoint" />
            <mxPoint x="255" y="429.86" as="targetPoint" />
          </mxGeometry>
        </mxCell>
        <mxCell id="hgUSs0YSdh9Fxql4E1rR-24" value="" style="endArrow=none;html=1;rounded=0;" edge="1" parent="1">
          <mxGeometry width="50" height="50" relative="1" as="geometry">
            <mxPoint x="215" y="384.71" as="sourcePoint" />
            <mxPoint x="255" y="384.71" as="targetPoint" />
          </mxGeometry>
        </mxCell>
        <mxCell id="hgUSs0YSdh9Fxql4E1rR-25" value="" style="endArrow=none;html=1;rounded=0;" edge="1" parent="1">
          <mxGeometry width="50" height="50" relative="1" as="geometry">
            <mxPoint x="215" y="340" as="sourcePoint" />
            <mxPoint x="255" y="340" as="targetPoint" />
          </mxGeometry>
        </mxCell>
        <mxCell id="hgUSs0YSdh9Fxql4E1rR-27" value="mode_i" style="text;html=1;align=center;verticalAlign=middle;whiteSpace=wrap;rounded=0;" vertex="1" parent="1">
          <mxGeometry x="350" y="538" width="50" height="25" as="geometry" />
        </mxCell>
        <mxCell id="hgUSs0YSdh9Fxql4E1rR-30" value="" style="endArrow=none;html=1;rounded=0;" edge="1" parent="1">
          <mxGeometry width="50" height="50" relative="1" as="geometry">
            <mxPoint x="215" y="430" as="sourcePoint" />
            <mxPoint x="215" y="340" as="targetPoint" />
          </mxGeometry>
        </mxCell>
        <mxCell id="hgUSs0YSdh9Fxql4E1rR-31" value="" style="endArrow=none;html=1;rounded=0;" edge="1" parent="1">
          <mxGeometry width="50" height="50" relative="1" as="geometry">
            <mxPoint x="155" y="380" as="sourcePoint" />
            <mxPoint x="215" y="380" as="targetPoint" />
          </mxGeometry>
        </mxCell>
        <mxCell id="hgUSs0YSdh9Fxql4E1rR-32" value="" style="endArrow=none;html=1;rounded=0;" edge="1" parent="1">
          <mxGeometry width="50" height="50" relative="1" as="geometry">
            <mxPoint x="155" y="380" as="sourcePoint" />
            <mxPoint x="155" y="340" as="targetPoint" />
          </mxGeometry>
        </mxCell>
        <mxCell id="hgUSs0YSdh9Fxql4E1rR-33" value="" style="endArrow=none;html=1;rounded=0;" edge="1" parent="1">
          <mxGeometry width="50" height="50" relative="1" as="geometry">
            <mxPoint x="535" y="400" as="sourcePoint" />
            <mxPoint x="595" y="400" as="targetPoint" />
          </mxGeometry>
        </mxCell>
        <mxCell id="hgUSs0YSdh9Fxql4E1rR-34" value="Load (par_i)" style="text;html=1;align=center;verticalAlign=middle;whiteSpace=wrap;rounded=0;" vertex="1" parent="1">
          <mxGeometry x="225" y="455" width="75" height="30" as="geometry" />
        </mxCell>
        <mxCell id="hgUSs0YSdh9Fxql4E1rR-36" value="Hold (next_P = P)&lt;span style=&quot;color: rgba(0, 0, 0, 0); font-family: monospace; font-size: 0px; text-align: start; text-wrap: nowrap;&quot;&gt;%3CmxGraphModel%3E%3Croot%3E%3CmxCell%20id%3D%220%22%2F%3E%3CmxCell%20id%3D%221%22%20parent%3D%220%22%2F%3E%3CmxCell%20id%3D%222%22%20value%3D%22%22%20style%3D%22endArrow%3Dnone%3Bhtml%3D1%3Brounded%3D0%3B%22%20edge%3D%221%22%20parent%3D%221%22%3E%3CmxGeometry%20width%3D%2250%22%20height%3D%2250%22%20relative%3D%221%22%20as%3D%22geometry%22%3E%3CmxPoint%20x%3D%22120%22%20y%3D%22470%22%20as%3D%22sourcePoint%22%2F%3E%3CmxPoint%20x%3D%22160%22%20y%3D%22470%22%20as%3D%22targetPoint%22%2F%3E%3C%2FmxGeometry%3E%3C%2FmxCell%3E%3C%2Froot%3E%3C%2FmxGraphModel%3E&lt;/span&gt;" style="text;html=1;align=center;verticalAlign=middle;whiteSpace=wrap;rounded=0;" vertex="1" parent="1">
          <mxGeometry x="235" y="310" width="70" height="30" as="geometry" />
        </mxCell>
        <mxCell id="hgUSs0YSdh9Fxql4E1rR-37" value="Left (next_P = {D, P[7:1]})" style="text;html=1;align=center;verticalAlign=middle;whiteSpace=wrap;rounded=0;" vertex="1" parent="1">
          <mxGeometry x="225" y="355" width="80" height="30" as="geometry" />
        </mxCell>
        <mxCell id="hgUSs0YSdh9Fxql4E1rR-38" value="Right (next_P = {P[6:0], D})" style="text;html=1;align=center;verticalAlign=middle;whiteSpace=wrap;rounded=0;" vertex="1" parent="1">
          <mxGeometry x="225" y="395" width="85" height="30" as="geometry" />
        </mxCell>
        <mxCell id="hgUSs0YSdh9Fxql4E1rR-39" value="next_P&lt;div&gt;[7:0]&lt;/div&gt;" style="text;html=1;align=center;verticalAlign=middle;whiteSpace=wrap;rounded=0;" vertex="1" parent="1">
          <mxGeometry x="415" y="370" width="50" height="25" as="geometry" />
        </mxCell>
        <mxCell id="hgUSs0YSdh9Fxql4E1rR-40" value="00" style="text;html=1;align=center;verticalAlign=middle;whiteSpace=wrap;rounded=0;" vertex="1" parent="1">
          <mxGeometry x="305" y="325" width="60" height="30" as="geometry" />
        </mxCell>
        <mxCell id="hgUSs0YSdh9Fxql4E1rR-41" value="10&lt;div&gt;&lt;br&gt;&lt;/div&gt;" style="text;html=1;align=center;verticalAlign=middle;whiteSpace=wrap;rounded=0;" vertex="1" parent="1">
          <mxGeometry x="305" y="375" width="60" height="30" as="geometry" />
        </mxCell>
        <mxCell id="hgUSs0YSdh9Fxql4E1rR-42" value="11" style="text;html=1;align=center;verticalAlign=middle;whiteSpace=wrap;rounded=0;" vertex="1" parent="1">
          <mxGeometry x="305" y="410" width="60" height="30" as="geometry" />
        </mxCell>
        <mxCell id="hgUSs0YSdh9Fxql4E1rR-43" value="10" style="text;html=1;align=center;verticalAlign=middle;whiteSpace=wrap;rounded=0;" vertex="1" parent="1">
          <mxGeometry x="305" y="465" width="60" height="30" as="geometry" />
        </mxCell>
        <mxCell id="hgUSs0YSdh9Fxql4E1rR-44" value="" style="endArrow=none;html=1;rounded=0;" edge="1" parent="1">
          <mxGeometry width="50" height="50" relative="1" as="geometry">
            <mxPoint x="415" y="425" as="sourcePoint" />
            <mxPoint x="445" y="395" as="targetPoint" />
          </mxGeometry>
        </mxCell>
      </root>
    </mxGraphModel>
  </diagram>
</mxfile>
